<?xml version="1.0" encoding="UTF-8" standalone="no"?>
<!-- Created with Inkscape (http://www.inkscape.org/) -->

<svg
   xmlns:dc="http://purl.org/dc/elements/1.1/"
   xmlns:cc="http://creativecommons.org/ns#"
   xmlns:rdf="http://www.w3.org/1999/02/22-rdf-syntax-ns#"
   xmlns:svg="http://www.w3.org/2000/svg"
   xmlns="http://www.w3.org/2000/svg"
   xmlns:sodipodi="http://sodipodi.sourceforge.net/DTD/sodipodi-0.dtd"
   xmlns:inkscape="http://www.inkscape.org/namespaces/inkscape"
   width="400"
   height="400"
   viewBox="0 0 105.83333 105.83333"
   version="1.1"
   id="svg8"
   inkscape:version="0.92.4 (unknown)"
   sodipodi:docname="facebook.svg">
  <defs
     id="defs2">
	
	
</defs>
  <sodipodi:namedview
     id="base"
     pagecolor="#ffffff"
     bordercolor="#666666"
     borderopacity="1.0"
     inkscape:pageopacity="0.0"
     inkscape:pageshadow="2"
     inkscape:zoom="0.7"
     inkscape:cx="-11.622679"
     inkscape:cy="168.23101"
     inkscape:document-units="mm"
     inkscape:current-layer="layer1"
     showgrid="false"
     inkscape:window-width="1853"
     inkscape:window-height="1025"
     inkscape:window-x="67"
     inkscape:window-y="27"
     inkscape:window-maximized="1"
     fit-margin-top="0"
     fit-margin-left="0"
     fit-margin-right="0"
     fit-margin-bottom="0"
     units="px" />
  <metadata
     id="metadata5">
    <rdf:RDF>
      <cc:Work
         rdf:about="">
        <dc:format>image/svg+xml</dc:format>
        <dc:type
           rdf:resource="http://purl.org/dc/dcmitype/StillImage" />
        <dc:title></dc:title>
      </cc:Work>
    </rdf:RDF>
  </metadata>
  <g
     inkscape:label="Layer 1"
     inkscape:groupmode="layer"
     id="layer1"
     transform="translate(0.14552622,54.137977)">
    <g
       id="g18"
       transform="matrix(0.34060676,0,0,0.34060676,-275.47159,-35.571502)">
		<path
   style="fill:#1877f2"
   inkscape:connector-curvature="0"
   class="st0"
   d="m 1060.8,100.8 c 0,-53.6 -43.5,-97.1 -97.1,-97.1 -53.6,0 -97.1,43.5 -97.1,97.1 0,48.5 35.5,88.7 82,95.9 v -67.9 h -24.8 v -28 h 24.8 V 79.4 c 0,-24.3 14.4,-37.8 36.6,-37.8 10.6,0 21.6,2 21.6,2 v 23.7 h -12.2 c -12.1,0 -15.9,7.6 -15.9,15.2 v 18.2 h 27 l -4.3,28 h -22.7 v 67.9 c 46.6,-7.1 82.1,-47.3 82.1,-95.8 z"
   id="path14" />

		<path
   style="fill:#ffffff"
   inkscape:connector-curvature="0"
   class="st1"
   d="m 1001.5,128.9 4.3,-28 h -27 V 82.7 c 0,-7.7 3.9,-15.2 15.9,-15.2 h 12.2 V 43.7 c 0,0 -11,-2 -21.6,-2 -22.2,0 -36.6,13.5 -36.6,37.8 v 21.4 h -24.8 v 28 h 24.8 v 67.9 c 4.9,0.8 10,1.2 15.1,1.2 5.1,0 10.2,-0.4 15.1,-1.2 v -67.9 z"
   id="path16" />

	</g>
  </g>
  <style
     id="style10"
     type="text/css">
	.st0{fill:#1877F2;}
	.st1{fill:#FFFFFF;}
</style>
</svg>
