<?xml version="1.0" encoding="UTF-8" standalone="no"?>
<svg
   xmlns:dc="http://purl.org/dc/elements/1.1/"
   xmlns:cc="http://creativecommons.org/ns#"
   xmlns:rdf="http://www.w3.org/1999/02/22-rdf-syntax-ns#"
   xmlns:svg="http://www.w3.org/2000/svg"
   xmlns="http://www.w3.org/2000/svg"
   xmlns:sodipodi="http://sodipodi.sourceforge.net/DTD/sodipodi-0.dtd"
   xmlns:inkscape="http://www.inkscape.org/namespaces/inkscape"
   id="Logo_FIXED"
   data-name="Logo — FIXED"
   viewBox="0 0 400 400"
   version="1.1"
   sodipodi:docname="github.svg"
   inkscape:version="0.92.4 (unknown)">
  <metadata
     id="metadata98">
    <rdf:RDF>
      <cc:Work
         rdf:about="">
        <dc:format>image/svg+xml</dc:format>
        <dc:type
           rdf:resource="http://purl.org/dc/dcmitype/StillImage" />
        <dc:title>Twitter_Logo_Blue</dc:title>
      </cc:Work>
    </rdf:RDF>
  </metadata>
  <sodipodi:namedview
     pagecolor="#ffffff"
     bordercolor="#666666"
     borderopacity="1"
     objecttolerance="10"
     gridtolerance="10"
     guidetolerance="10"
     inkscape:pageopacity="0"
     inkscape:pageshadow="2"
     inkscape:window-width="3706"
     inkscape:window-height="2049"
     id="namedview96"
     showgrid="false"
     inkscape:zoom="1.668772"
     inkscape:cx="71.004981"
     inkscape:cy="139.46612"
     inkscape:window-x="3974"
     inkscape:window-y="55"
     inkscape:window-maximized="1"
     inkscape:current-layer="Logo_FIXED" />
  <defs
     id="defs87">
    <style
       id="style85">.cls-1{fill:none;}.cls-2{fill:#1da1f2;}</style>
  </defs>
  <title
     id="title89">Twitter_Logo_Blue</title>
  <rect
     class="cls-1"
     width="400"
     height="400"
     id="rect91" />
  <path
     id="path121"
     d="M 199.99997,57.780297 C 130.93748,57.780297 75,113.74901 75,182.78027 c 0,55.23955 35.81249,102.08333 85.46874,118.59374 6.24999,1.17709 8.54166,-2.68748 8.54166,-6.01041 0,-2.96875 -0.10416,-10.83332 -0.15624,-21.25 -34.77082,7.54169 -42.10415,-16.77088 -42.10415,-16.77088 -5.68749,-14.42706 -13.90624,-18.28124 -13.90624,-18.28124 -11.32292,-7.75 0.875,-7.59374 0.875,-7.59374 12.55208,0.87501 19.14582,12.87501 19.14582,12.87501 11.14584,19.11457 29.26043,13.59374 36.40625,10.39582 1.12501,-8.08332 4.34374,-13.59374 7.91667,-16.71875 -27.76041,-3.12499 -56.93749,-13.87499 -56.93749,-61.77082 0,-13.64582 4.84374,-24.79166 12.86457,-33.54166 -1.40625,-3.15625 -5.625,-15.86456 1.09376,-33.08331 0,0 10.46873,-3.35416 34.37498,12.81249 10,-2.78125 20.62501,-4.15626 31.24999,-4.21875 10.62502,0.0625 21.25,1.4375 31.25,4.21875 23.74999,-16.16665 34.21874,-12.81249 34.21874,-12.81249 6.71876,17.21875 2.5,29.92706 1.25,33.08331 7.96876,8.75 12.8125,19.89584 12.8125,33.54166 0,48.02082 -29.21875,58.59375 -57.03124,61.66666 4.37501,3.75 8.4375,11.41665 8.4375,23.12499 0,16.72921 -0.15623,30.16669 -0.15623,34.22921 0,3.28124 2.18751,7.18748 8.59377,5.93748 C 289.21876,284.81152 325,237.93649 325,182.78027 325,113.74901 269.03126,57.780297 200.00003,57.780297"
     inkscape:connector-curvature="0"
     style="stroke-width:10.41666412" />
</svg>
