<?xml version="1.0" encoding="UTF-8" standalone="no"?>
<svg
   xmlns:dc="http://purl.org/dc/elements/1.1/"
   xmlns:cc="http://creativecommons.org/ns#"
   xmlns:rdf="http://www.w3.org/1999/02/22-rdf-syntax-ns#"
   xmlns:svg="http://www.w3.org/2000/svg"
   xmlns="http://www.w3.org/2000/svg"
   xmlns:sodipodi="http://sodipodi.sourceforge.net/DTD/sodipodi-0.dtd"
   xmlns:inkscape="http://www.inkscape.org/namespaces/inkscape"
   id="Logo_FIXED"
   data-name="Logo — FIXED"
   viewBox="0 0 400 400"
   version="1.1"
   sodipodi:docname="instagram.svg"
   inkscape:version="0.92.4 (unknown)">
  <sodipodi:namedview
     pagecolor="#ffffff"
     bordercolor="#666666"
     borderopacity="1"
     objecttolerance="10"
     gridtolerance="10"
     guidetolerance="10"
     inkscape:pageopacity="0"
     inkscape:pageshadow="2"
     inkscape:window-width="3706"
     inkscape:window-height="2049"
     id="namedview64"
     showgrid="false"
     inkscape:zoom="3.1696061"
     inkscape:cx="186.96583"
     inkscape:cy="134.57613"
     inkscape:window-x="3974"
     inkscape:window-y="55"
     inkscape:window-maximized="1"
     inkscape:current-layer="Logo_FIXED" />
  <defs
     id="defs55">
    <style
       id="style53">.cls-1{fill:none;}.cls-2{fill:#1da1f2;}</style>
  </defs>
  <title
     id="title57">Instagram</title>
  <rect
     class="cls-1"
     width="400"
     height="400"
     id="rect59" />
  <g
     inkscape:groupmode="layer"
     id="layer1"
     inkscape:label="Layer 1" />
  <g
     inkscape:groupmode="layer"
     id="layer2"
     inkscape:label="Layer 2" />
  <path
     id="path943"
     d="m 200.00001,97.53125 c 33.375,0 37.33333,0.125 50.52083,0.72917 33.875,1.54167 49.69792,17.61458 51.23958,51.23958 0.60417,13.17709 0.71875,17.13542 0.71875,50.51042 0,33.38542 -0.125,37.33332 -0.71875,50.51042 -1.55208,33.59373 -17.33333,49.69789 -51.23958,51.23956 -13.1875,0.60417 -17.125,0.72917 -50.52083,0.72917 -33.37501,0 -37.33334,-0.125 -50.51042,-0.72917 C 115.53125,300.20833 99.79167,284.0625 98.25,250.5104 97.64584,237.33334 97.52084,233.3854 97.52084,200 c 0,-33.375 0.1354,-37.32291 0.72916,-50.51041 1.55209,-33.61459 17.33334,-49.69792 51.23959,-51.23959 13.1875,-0.59375 17.13541,-0.71875 50.51042,-0.71875 z m 0,-22.53125 c -33.94792,0 -38.19792,0.14583 -51.53126,0.75 -45.39583,2.08333 -70.625,27.27084 -72.70833,72.70834 C 75.14584,161.80209 75,166.05209 75,200 c 0,33.9479 0.14584,38.20834 0.75,51.54167 2.08334,45.39583 27.27084,70.625 72.70834,72.70833 13.34375,0.60417 17.59375,0.75 51.54167,0.75 33.94791,0 38.20833,-0.146 51.54166,-0.75 45.35417,-2.08333 70.64584,-27.27083 72.69792,-72.70833 0.61458,-13.33333 0.76042,-17.59377 0.76042,-51.54167 0,-33.94791 -0.14584,-38.19791 -0.75,-51.53125 -2.04167,-45.35416 -27.26042,-70.625 -72.69792,-72.70833 C 238.20834,75.14583 233.94792,75 200.00001,75 Z m 0,60.8125 c -35.44792,0 -64.18751,28.73959 -64.18751,64.1875 0,35.4479 28.73959,64.1979 64.18751,64.1979 35.44791,0 64.1875,-28.73956 64.1875,-64.1979 0,-35.44791 -28.73959,-64.1875 -64.1875,-64.1875 z m 0,105.85417 c -23.01042,0 -41.66667,-18.64583 -41.66667,-41.66667 0,-23.01041 18.65625,-41.66666 41.66667,-41.66666 23.01041,0 41.66666,18.65625 41.66666,41.66666 0,23.02084 -18.65625,41.66667 -41.66666,41.66667 z m 66.72916,-123.38542 c -8.29166,0 -15.01041,6.71875 -15.01041,15 0,8.28125 6.71875,15 15.01041,15 8.28125,0 14.98959,-6.71875 14.98959,-15 0,-8.28125 -6.70834,-15 -14.98959,-15 z"
     inkscape:connector-curvature="0"
     style="stroke-width:10.41666698" />
  <metadata
     id="metadata954">
    <rdf:RDF>
      <cc:Work
         rdf:about="">
        <dc:title>Instagram</dc:title>
      </cc:Work>
    </rdf:RDF>
  </metadata>
</svg>
